<?xml version="1.0" standalone="no"?>
<!DOCTYPE svg PUBLIC "-//W3C//DTD SVG 20010904//EN"
 "http://www.w3.org/TR/2001/REC-SVG-20010904/DTD/svg10.dtd">
<svg version="1.0" xmlns="http://www.w3.org/2000/svg"
 width="64.000000pt" height="64.000000pt" viewBox="0 0 64.000000 64.000000"
 preserveAspectRatio="xMidYMid meet">

<g transform="translate(0.000000,64.000000) scale(0.100000,-0.100000)"
fill="#000000" stroke="none">
<path d="M110 580 c-28 -28 -27 -102 1 -142 24 -33 21 -40 -31 -66 -37 -19
-59 -47 -47 -59 5 -4 12 -1 17 7 5 8 28 24 52 35 49 23 61 58 34 97 -9 12 -16
42 -16 66 0 35 4 44 23 51 14 6 31 4 50 -6 25 -12 27 -18 23 -54 -2 -22 -12
-51 -20 -64 -25 -38 -20 -64 15 -79 32 -14 75 -87 65 -113 -10 -26 -36 -14
-36 17 0 53 -90 80 -130 40 -28 -28 -27 -102 1 -141 24 -35 22 -40 -30 -64
-22 -10 -43 -27 -47 -37 -8 -26 5 -38 17 -16 5 10 30 26 54 37 38 17 45 24 45
48 0 15 -7 37 -15 47 -8 11 -15 39 -15 63 0 36 4 45 25 55 19 9 29 8 50 -6 22
-15 25 -23 21 -56 -2 -21 -11 -49 -20 -62 -29 -41 -21 -67 28 -88 24 -10 48
-26 54 -36 5 -9 14 -14 20 -10 20 12 0 37 -49 62 -27 13 -49 27 -49 29 0 18
50 76 77 89 38 18 43 44 15 84 -22 32 -27 89 -11 108 12 15 46 18 73 8 23 -9
21 -79 -3 -118 -22 -36 -13 -75 19 -83 21 -6 60 -61 60 -85 0 -8 -18 -23 -41
-33 -44 -20 -67 -49 -48 -61 7 -4 16 1 21 10 6 10 30 26 54 36 49 21 56 43 28
85 -8 13 -18 42 -20 64 -4 35 -1 42 21 57 22 14 29 15 50 4 20 -11 25 -21 25
-55 0 -23 -7 -50 -15 -61 -8 -10 -15 -32 -15 -47 0 -24 7 -31 45 -48 24 -11
49 -27 54 -37 12 -22 25 -10 17 16 -4 10 -25 27 -47 37 -52 24 -54 29 -30 64
14 19 21 44 21 73 0 49 -6 60 -37 77 -52 27 -113 1 -113 -50 0 -31 -6 -35 -29
-20 -12 8 -11 17 10 56 13 26 36 53 52 61 31 17 35 43 10 81 -10 15 -19 44
-20 65 -2 30 2 41 21 53 19 13 28 13 50 4 22 -10 26 -19 26 -53 0 -23 -7 -52
-16 -64 -27 -39 -15 -74 34 -97 24 -11 47 -27 52 -35 5 -8 12 -11 17 -7 13 14
-12 41 -55 62 -47 22 -50 29 -22 65 13 17 20 41 20 72 0 39 -5 50 -26 67 -32
25 -71 27 -102 5 -18 -12 -22 -25 -22 -66 0 -28 7 -62 16 -78 17 -28 14 -60
-6 -60 -5 0 -10 7 -10 15 0 26 -47 65 -77 65 -39 0 -73 -26 -73 -56 0 -27 -3
-28 -31 -13 -20 10 -20 10 0 45 21 35 28 108 13 130 -24 36 -92 44 -122 14z"/>
</g>
</svg>
