<?xml version="1.0" standalone="no"?>
<!DOCTYPE svg PUBLIC "-//W3C//DTD SVG 20010904//EN"
 "http://www.w3.org/TR/2001/REC-SVG-20010904/DTD/svg10.dtd">
<svg version="1.0" xmlns="http://www.w3.org/2000/svg"
 width="64.000000pt" height="64.000000pt" viewBox="0 0 64.000000 64.000000"
 preserveAspectRatio="xMidYMid meet">

<g transform="translate(0.000000,64.000000) scale(0.100000,-0.100000)"
fill="#000000" stroke="none">
<path d="M346 594 c-9 -8 -16 -22 -16 -30 0 -8 -11 -19 -24 -26 -21 -9 -29 -7
-56 16 -39 32 -41 32 -78 1 -17 -14 -37 -25 -46 -25 -35 0 -86 -30 -106 -62
-42 -69 -11 -168 69 -220 40 -25 53 -29 99 -25 66 5 109 42 119 102 3 22 17
53 30 68 29 36 29 39 -8 82 -32 36 -31 38 21 39 26 1 34 28 17 53 -17 23 21
26 53 3 30 -22 38 -44 20 -55 -5 -3 -10 -13 -10 -21 0 -11 4 -12 19 -4 27 14
28 13 35 -15 8 -32 -2 -53 -16 -34 -7 11 -11 11 -15 2 -9 -23 -21 -14 -33 23
-10 30 -9 38 5 54 21 23 3 36 -20 13 -22 -22 -14 -87 14 -117 35 -37 23 -66
-28 -66 -34 0 -55 -26 -53 -64 2 -20 -4 -49 -13 -65 -8 -17 -15 -48 -15 -70 0
-33 7 -47 35 -75 21 -21 49 -38 70 -42 53 -10 124 1 154 23 38 29 71 82 71
115 0 35 -23 82 -48 100 -11 7 -22 30 -26 50 -8 41 -34 56 -81 44 -14 -4 -25
-2 -25 3 0 6 11 22 25 37 14 15 25 38 25 51 0 31 -18 65 -31 58 -5 -4 -9 7 -9
24 0 52 -88 91 -124 55z m-71 -104 l59 -60 -23 -24 c-13 -14 -25 -40 -27 -58
-6 -52 -13 -65 -41 -83 -85 -56 -213 24 -213 132 0 58 41 103 92 103 24 0 42
8 58 25 13 14 26 25 30 25 3 0 32 -27 65 -60z m265 -176 c0 -13 15 -41 35 -63
58 -64 42 -141 -38 -180 -48 -23 -82 -26 -124 -10 -72 27 -97 86 -64 149 14
27 18 49 14 73 l-5 35 73 12 c41 6 79 13 84 14 17 5 25 -4 25 -30z"/>
<path d="M233 470 c-7 -10 -9 -21 -4 -24 13 -8 45 20 37 32 -10 17 -19 15 -33
-8z"/>
<path d="M99 468 c-32 -11 -54 -57 -45 -93 12 -46 66 -96 113 -102 36 -5 45
-2 68 22 23 22 26 32 22 62 -14 82 -90 136 -158 111z m97 -52 c44 -44 47 -110
4 -116 -61 -9 -120 37 -120 94 0 66 61 77 116 22z"/>
<path d="M437 314 c-3 -4 -2 -16 4 -26 13 -24 35 -9 26 16 -7 17 -19 21 -30
10z"/>
<path d="M424 246 c-101 -44 -72 -166 39 -166 111 0 168 109 84 160 -37 23
-79 25 -123 6z m118 -33 c24 -22 23 -55 -4 -80 -33 -29 -72 -36 -113 -19 -29
12 -35 20 -35 45 0 59 105 97 152 54z"/>
</g>
</svg>
