<?xml version="1.0" standalone="no"?>
<!DOCTYPE svg PUBLIC "-//W3C//DTD SVG 20010904//EN"
 "http://www.w3.org/TR/2001/REC-SVG-20010904/DTD/svg10.dtd">
<svg version="1.0" xmlns="http://www.w3.org/2000/svg"
 width="64.000000pt" height="64.000000pt" viewBox="0 0 64.000000 64.000000"
 preserveAspectRatio="xMidYMid meet">

<g transform="translate(0.000000,64.000000) scale(0.100000,-0.100000)"
fill="#000000" stroke="none">
<path d="M40 451 c0 -130 1 -139 20 -144 19 -5 20 -14 20 -131 l0 -126 240 0
240 0 0 126 c0 117 1 126 20 131 19 5 20 14 20 144 l0 139 -280 0 -280 0 0
-139z m538 -3 l-3 -113 -78 -3 -77 -3 -48 75 c-26 42 -49 76 -52 76 -3 0 -26
-34 -52 -76 l-48 -75 -77 3 -78 3 -3 113 -3 112 261 0 261 0 -3 -112z m-215
-78 l37 -60 70 0 70 0 0 -115 0 -115 -80 0 -80 0 0 68 c0 82 -14 105 -60 105
-46 0 -60 -23 -60 -105 l0 -68 -80 0 -80 0 0 115 0 115 70 0 70 0 37 60 c21
33 40 60 43 60 3 0 22 -27 43 -60z m-15 -152 c7 -7 12 -39 12 -75 l0 -63 -40
0 -40 0 0 63 c0 64 11 87 40 87 9 0 21 -5 28 -12z"/>
<path d="M130 200 l0 -60 50 0 50 0 0 60 0 60 -50 0 -50 0 0 -60z m70 0 c0
-25 -4 -30 -25 -30 -21 0 -25 5 -25 30 0 25 4 30 25 30 21 0 25 -5 25 -30z"/>
<path d="M410 200 l0 -60 50 0 50 0 0 60 0 60 -50 0 -50 0 0 -60z m80 0 c0
-25 -4 -30 -25 -30 -21 0 -25 5 -25 30 0 25 4 30 25 30 21 0 25 -5 25 -30z"/>
</g>
</svg>
